<?xml version="1.0" standalone="no"?>
<!DOCTYPE svg PUBLIC "-//W3C//DTD SVG 20010904//EN"
 "http://www.w3.org/TR/2001/REC-SVG-20010904/DTD/svg10.dtd">
<svg version="1.0" xmlns="http://www.w3.org/2000/svg"
 width="512.000000pt" height="512.000000pt" viewBox="0 0 512.000000 512.000000"
 preserveAspectRatio="xMidYMid meet">
<metadata>
Created by potrace 1.14, written by Peter Selinger 2001-2017
</metadata>
<g transform="translate(0.000000,512.000000) scale(0.100000,-0.100000)"
fill="#000000" stroke="none">
<path d="M2384 4310 c-207 -54 -377 -205 -457 -407 -9 -23 -19 -52 -21 -65 -3
-13 -9 -44 -14 -70 -5 -26 -8 -82 -6 -125 16 -461 475 -766 904 -600 169 65
296 185 369 350 39 87 53 148 56 254 6 189 -64 362 -204 502 -63 63 -213 145
-306 167 -70 16 -249 13 -321 -6z"/>
<path d="M1305 3200 c-130 -30 -229 -86 -325 -184 -81 -83 -153 -211 -176
-313 -15 -74 -16 -229 0 -293 9 -36 18 -72 20 -81 6 -22 60 -127 84 -162 77
-113 255 -237 373 -261 13 -3 44 -9 69 -14 98 -19 240 -4 346 37 230 89 400
307 420 539 3 37 7 72 8 77 5 14 -12 132 -25 185 -43 166 -182 335 -339 415
-134 68 -311 90 -455 55z"/>
<path d="M3515 3205 c-137 -29 -250 -90 -343 -187 -87 -89 -138 -179 -172
-299 -16 -61 -19 -94 -16 -194 5 -131 20 -187 78 -298 30 -57 145 -184 208
-230 40 -29 150 -77 212 -93 72 -19 202 -25 265 -12 26 5 58 11 71 14 43 9
147 54 192 84 67 44 167 148 204 211 67 112 98 223 96 344 -1 129 -16 197 -66
300 -88 180 -263 317 -461 361 -55 12 -209 11 -268 -1z"/>
<path d="M2470 2118 c-151 -17 -290 -87 -401 -203 -308 -323 -216 -855 184
-1056 113 -57 277 -83 402 -64 130 21 275 97 373 196 82 83 154 215 177 325
13 62 12 211 -2 279 -29 145 -134 308 -254 397 -137 101 -304 145 -479 126z"/>
</g>
</svg>
